<svg width="411" height="422" viewBox="0 0 411 422" fill="none" xmlns="http://www.w3.org/2000/svg">
<g clip-path="url(#clip0)">
<path d="M397.995 118.344C398.996 122.149 400.694 130.535 399.486 133.641" stroke="url(#paint0_linear)" stroke-width="4" stroke-linecap="round" stroke-linejoin="round"/>
<path d="M392.805 132.041C390.625 130.773 386.061 127.787 385.247 125.979" stroke="url(#paint1_linear)" stroke-width="4" stroke-linecap="round" stroke-linejoin="round"/>
<path d="M388.918 112.443C389.191 109.935 390.066 104.552 391.387 103.074" stroke="url(#paint2_linear)" stroke-width="4" stroke-linecap="round" stroke-linejoin="round"/>
<path d="M326.312 77.3054C316.768 82.0773 311.519 90.1896 313.428 102.597C314.015 106.414 328.221 96.3931 326.312 77.3054Z" fill="#9FBE9F"/>
<path d="M296.833 83.1382C296.957 90.2812 300.339 95.7961 308.383 98.2295C310.859 98.9782 308.913 87.5025 296.833 83.1382Z" fill="#9FBE9F"/>
<path d="M339.762 98.7791C342.148 56.3089 333.558 46.2878 303.495 6.68076" stroke="url(#paint3_linear)" stroke-linecap="round" stroke-linejoin="round"/>
<line x1="307.813" y1="6.68076" x2="307.813" y2="12.4071" stroke="#80C7AE"/>
<path d="M302.729 11.0141L309.221 14.3159" stroke="url(#paint4_linear)"/>
<line x1="313.529" y1="14.4139" x2="312.575" y2="19.1859" stroke="url(#paint5_linear)"/>
<line x1="306.496" y1="17.6526" x2="313.176" y2="19.5614" stroke="url(#paint6_linear)"/>
<line x1="311.185" y1="27.1803" x2="319.775" y2="28.1347" stroke="#80C7AE"/>
<line x1="321.155" y1="21.1339" x2="319.246" y2="27.8146" stroke="url(#paint7_linear)"/>
<line x1="313.115" y1="33.8638" x2="325.522" y2="35.7726" stroke="#80C7AE"/>
<line x1="326.888" y1="26.8314" x2="324.98" y2="35.4208" stroke="url(#paint8_linear)"/>
<path d="M317.951 41.537L330.695 45.3334" stroke="#6FB3A0"/>
<line x1="333.528" y1="36.4904" x2="329.711" y2="44.1255" stroke="url(#paint9_linear)"/>
<line x1="343.054" y1="51.7942" x2="337.327" y2="61.3381" stroke="url(#paint10_linear)"/>
<line x1="326.607" y1="56.8081" x2="337.105" y2="61.58" stroke="url(#paint11_linear)"/>
<line x1="322.775" y1="48.2123" x2="334.228" y2="52.9842" stroke="url(#paint12_linear)"/>
<line x1="339.244" y1="44.1447" x2="334.473" y2="52.7342" stroke="url(#paint13_linear)"/>
<line x1="330.495" y1="65.4367" x2="339.085" y2="71.163" stroke="url(#paint14_linear)"/>
<line x1="346.816" y1="62.3674" x2="339.181" y2="70.9569" stroke="#519289"/>
<line x1="333.406" y1="73.1082" x2="340.087" y2="78.8345" stroke="#519289"/>
<line x1="347.77" y1="70.9569" x2="340.135" y2="79.5464" stroke="url(#paint15_linear)"/>
<line x1="335.302" y1="82.6413" x2="340.074" y2="86.4588" stroke="url(#paint16_linear)"/>
<line x1="345.12" y1="83.0359" x2="340.446" y2="88.0871" stroke="url(#paint17_linear)"/>
<path d="M346.741 94.694C345.214 90.113 349.922 84.1958 352.467 81.8098C353.898 81.8098 350.558 77.0379 351.035 76.5607C351.417 76.1789 353.739 77.9923 354.853 78.9467C355.33 76.0835 355.807 75.6063 356.284 74.6519C356.959 73.3022 358.193 78.9467 358.193 77.9923C358.193 77.2288 361.375 76.0835 362.965 75.6063C362.806 75.9244 361.725 77.3242 358.67 80.3782C366.783 81.8098 369.169 87.5361 369.646 90.8765C370.123 94.2169 366.306 103.284 358.67 103.761C351.035 104.238 348.649 100.42 346.741 94.694Z" fill="url(#paint18_linear)"/>
<path d="M328.677 184.574C344.463 169.282 347.916 148.07 354.328 145.604" stroke="url(#paint19_linear)" stroke-linecap="round" stroke-linejoin="round"/>
<path d="M381.006 119.991C367.676 121.973 346.407 134.133 352.718 147.344C353.929 149.877 374.624 143.124 381.006 119.991Z" fill="url(#paint20_linear)"/>
<path d="M336.731 132.455C345.071 136.505 350.382 148.071 346.929 155.47C345.79 157.91 328.184 143.138 336.731 132.455Z" fill="url(#paint21_linear)"/>
<path d="M324.991 148.151C333.33 152.201 341.503 165.336 338.05 172.735C336.911 175.175 321.278 165.336 324.991 148.151Z" fill="url(#paint22_linear)"/>
<path d="M365.674 173.804C359.261 180.628 342.536 179.512 337.854 172.821C336.311 170.615 356.795 164.349 365.674 173.804Z" fill="url(#paint23_linear)"/>
<path d="M373.567 152.51C367.154 159.334 356.302 159.416 347.422 155.47C344.962 154.376 364.194 145.604 373.567 152.51Z" fill="url(#paint24_linear)"/>
<path d="M309.929 51.6035C307.639 48.5494 297.84 49.6947 293.227 50.6491C288.933 44.9228 284.161 35.3789 279.866 36.3333C279.033 36.5184 281.138 39.9918 282.252 42.0596C281.775 42.0596 280.057 42.155 277.003 42.5368C273.949 42.9185 278.275 46.5134 280.82 48.2631C278.434 48.2631 276.526 47.3087 274.14 49.6947C271.963 51.871 285.751 54.1485 291.796 54.4666C293.705 59.7158 300.862 64.9649 303.726 65.4421C305.323 65.7083 302.294 62.1017 302.294 57.807C303.567 58.1251 306.684 58.7614 308.975 58.7614C311.265 58.7614 306.43 54.9438 303.726 53.035C303.248 52.0807 310.459 52.3103 309.929 51.6035Z" fill="url(#paint25_linear)"/>
<path d="M257.851 79.3525C260.247 76.9885 268.95 79.0924 273.001 80.4398C277.494 76.0075 282.834 68.3478 286.599 69.6588C287.329 69.9132 285.053 72.6586 283.825 74.3092C284.255 74.3637 285.792 74.642 288.502 75.319C291.211 75.9961 286.922 78.5923 284.439 79.8058C286.588 80.0784 288.411 79.4759 290.301 81.7997C292.024 83.9192 279.355 84.3022 273.875 83.8852C271.583 88.1799 264.562 91.8749 261.931 91.958C260.463 92.0045 263.585 89.2499 264.053 85.5577C262.872 85.6859 259.994 85.8767 257.931 85.6151C255.867 85.3534 260.639 82.6239 263.284 81.2918C263.817 80.5258 257.296 79.8995 257.851 79.3525Z" fill="url(#paint26_linear)"/>
<path d="M266.069 101.167C269.764 100.695 276.01 108.385 278.671 112.289C285.599 111.403 295.437 108.245 297.87 111.925C298.342 112.639 294.498 113.528 292.309 114.156C292.651 114.492 293.817 115.769 295.747 118.182C297.677 120.596 292.161 120.003 289.161 119.405C290.87 121.087 292.879 121.78 292.982 125.092C293.077 128.114 281.671 119.951 277.128 115.907C272.23 118.149 263.573 116.69 261.202 114.997C259.878 114.053 264.474 113.724 267.363 110.789C266.238 110.109 263.577 108.346 261.937 106.732C260.297 105.117 266.328 105.917 269.548 106.519C270.532 106.203 265.214 101.277 266.069 101.167Z" fill="url(#paint27_linear)"/>
<path d="M218.901 89.8572C220.718 87.0231 229.67 87.1568 233.919 87.5779C237.324 82.2641 240.844 73.6157 244.805 74.0645C245.573 74.1516 243.959 77.3312 243.125 79.2119C243.556 79.1703 245.117 79.1029 247.909 79.1659C250.701 79.229 247.09 82.707 244.935 84.4381C247.091 84.2301 248.737 83.2405 251.093 85.0905C253.241 86.778 240.967 89.9446 235.53 90.746C234.242 95.4401 228.208 100.592 225.66 101.253C224.238 101.622 226.676 98.2471 226.319 94.5425C225.195 94.9279 222.43 95.7485 220.36 95.9482C218.289 96.1479 222.342 92.4334 224.628 90.5512C224.98 89.6864 218.481 90.5131 218.901 89.8572Z" fill="url(#paint28_linear)"/>
<path d="M262.998 31.0082C267.404 36.9242 264.755 56.4806 252.563 56.8008C240.852 47.5814 255.976 30.311 262.998 31.0082Z" fill="url(#paint29_linear)"/>
<path d="M261.979 40.5615C261.343 44.0609 259.498 51.0597 257.207 51.0597" stroke="#815E59" stroke-linecap="round" stroke-linejoin="round"/>
<path d="M249.647 0.379759C246.784 8.01484 255.373 28.057 268.257 24.7166C277.801 11.3552 256.805 -2.48342 249.647 0.379759Z" fill="url(#paint30_linear)"/>
<path d="M253.941 9.92361C255.214 12.4686 258.904 18.1313 263.485 20.4219" stroke="#815E59" stroke-linecap="round" stroke-linejoin="round"/>
<path d="M202.696 69.9219C200.799 74.9807 206.49 88.2602 215.027 86.0469C221.35 77.194 207.438 68.0248 202.696 69.9219Z" fill="url(#paint31_linear)"/>
<path d="M205.541 76.2455C206.384 77.9317 208.83 81.6837 211.865 83.2014" stroke="#815E59" stroke-linecap="round" stroke-linejoin="round"/>
<path d="M212.852 47.4058C213.615 28.6998 230.031 25.9321 238.143 26.8865C246.255 27.8409 252.613 32.1356 253.413 38.3391C255.322 53.1321 248.164 63.1532 244.346 64.5848C240.529 66.0164 211.897 70.7883 212.852 47.4058Z" fill="url(#paint32_linear)"/>
<path d="M222.201 45.8106C221.438 43.9019 222.519 38.0165 223.156 35.3124C226.496 35.3124 224.587 43.9019 227.45 45.8106C230.314 47.7194 238.426 42.4703 239.38 43.9019C240.335 45.3334 232.7 52.9685 231.268 52.9685C229.836 52.9685 238.903 62.5124 238.426 63.4668C237.949 64.4212 231.268 61.558 228.882 59.1721C226.496 56.7861 225.542 70.1475 224.587 70.6247C223.633 71.1019 221.247 61.558 222.201 59.1721C223.156 56.7861 214.089 62.5124 212.18 61.558C210.271 60.6036 217.907 52.9685 217.907 51.537C217.907 50.1054 211.226 45.8106 212.18 43.9019C213.135 41.9931 223.156 48.1966 222.201 45.8106Z" fill="url(#paint33_radial)"/>
<path d="M153.656 61.0808C153.656 44.6654 165.427 38.9709 171.312 38.1755C183.242 38.1755 199.495 47.049 194.218 63.4668C189.923 76.8282 176.084 82.5545 171.312 82.0773C165.427 81.9183 153.656 77.4963 153.656 61.0808Z" fill="url(#paint34_radial)"/>
<path d="M170.073 56.9422C169.292 55.3807 169.334 48.5071 169.474 44.8562C172.337 44.8562 173.769 52.9685 176.632 52.9685C179.495 52.9685 185.222 50.5826 187.608 49.6282C189.993 48.6738 183.313 58.2176 180.927 58.6948C178.541 59.172 193.811 64.4212 188.562 65.3756C183.313 66.3299 180.45 61.0808 179.495 66.8071C178.732 71.3882 177.268 75.3966 176.632 76.8282C171.383 73.965 174.723 68.8352 172.337 68.2387C166.611 66.8071 161.839 69.1931 160.885 68.2387C159.93 67.2843 165.657 61.558 166.611 61.0808C167.565 60.6036 158.499 57.2633 159.453 55.3545C160.234 53.7927 168.044 56.0647 170.073 56.9422Z" fill="#9EBE9F"/>
<path d="M125.368 59.4585C145.41 72.3427 140.863 88.5673 136.569 97.1568C132.592 101.929 121.489 111.091 108.891 109.564C95.2321 107.908 88.0353 93.686 83.2527 79.9778C82.5216 77.8824 82.6952 74.2515 78.3511 70.4339C65.7532 59.363 68.6481 55.4819 70.2388 53.255C71.5935 51.2845 75.8849 49.0471 83.6002 52.035C91.2353 56.1181 101.985 56.5953 101.985 56.5953C114.392 55.6409 120.344 57.0725 125.368 59.4585Z" fill="url(#paint35_linear)"/>
<path d="M61.8001 29.8063C57.9074 37.0597 62.8772 50.3265 69.9123 53.1888C72.2319 54.1326 74.8788 38.8481 61.8001 29.8063Z" fill="url(#paint36_linear)"/>
<path d="M70.1337 53.3866C69.1999 53.1023 59.9453 54.2294 55.4171 51.0597C62.5924 47.9205 69.3462 52.7888 70.1337 53.3866C70.184 53.4019 70.2102 53.4213 70.2102 53.4457C70.2102 53.4457 70.1842 53.4249 70.1337 53.3866Z" fill="url(#paint37_linear)"/>
<path d="M89.6129 146.498L96.2936 136.477C96.7708 136.477 97.8206 136.668 98.2024 137.432C98.5842 138.195 92.6351 143.794 89.6129 146.498Z" fill="#F4B5AC" stroke="#F4B5AC" stroke-linecap="round" stroke-linejoin="round"/>
<path d="M98.6796 150.316L100.588 137.909C101.066 137.909 102.497 135.523 102.497 138.863C102.497 139.717 101.066 143.635 98.6796 150.316Z" fill="#F4B5AC" stroke="#F4B5AC" stroke-linecap="round" stroke-linejoin="round"/>
<path d="M107.579 148.818L104.406 137.432C104.743 137.094 106.432 136.064 107.242 136.334C108.052 136.604 107.804 144.769 107.579 148.818Z" fill="#F4B5AC" stroke="#F4B5AC" stroke-linecap="round" stroke-linejoin="round"/>
<path d="M84.3681 120.783C81.2795 112.258 97.7474 97.0494 104.021 84.9405H116.219C119.114 93.6589 125.026 116.424 122.493 123.205C121.045 127.079 112.358 141.61 99.3283 137.735C88.9044 134.635 85.0115 125.142 84.3681 120.783Z" fill="url(#paint38_linear)"/>
<path d="M112.041 85.4177C117.29 69.1931 129.22 25.9276 135.901 5.24918C138.287 5.88543 138.036 5.24918 140.195 5.24918C141.627 5.24918 135.901 18.6106 116.336 85.4177H112.041Z" fill="url(#paint39_linear)"/>
<path d="M104.406 85.4177C106.315 67.7615 106.792 24.8141 111.564 2.86322C113.95 3.49948 113.699 2.86322 115.859 2.86322C118.018 2.86322 111.564 12.4071 108.701 85.4177H104.406Z" fill="url(#paint40_linear)"/>
<path d="M108.701 85.4177C110.609 67.7615 118.728 23.4509 123.5 1.5C125.886 2.13626 124.84 1.5 127 1.5C129.16 1.5 123.971 16.2246 112.041 85.4177H108.701Z" fill="url(#paint41_linear)"/>
<path d="M105.36 84.4633C107.269 66.8071 114.728 23.9509 119.5 2C121.886 2.63626 120.84 2 123 2C125.16 2 120.63 15.2702 108.701 84.4633H105.36Z" fill="url(#paint42_linear)"/>
<path d="M83.0315 12.1152C84.8802 9.77207 89.2115 4.90774 91.7465 4.19525" stroke="url(#paint43_linear)" stroke-width="5" stroke-linecap="round" stroke-linejoin="round"/>
<path d="M87.5999 35.6382C85.8105 38.0237 81.6284 42.9809 79.2141 43.725" stroke="url(#paint44_linear)" stroke-width="4" stroke-linecap="round" stroke-linejoin="round"/>
<path d="M150.809 106.891C151.809 110.696 153.508 119.083 152.3 122.189" stroke="url(#paint45_linear)" stroke-width="4" stroke-linecap="round" stroke-linejoin="round"/>
<path d="M93.4235 17.179C93.7821 20.1394 94.1922 26.6121 92.964 28.8197" stroke="url(#paint46_linear)" stroke-width="4" stroke-linecap="round" stroke-linejoin="round"/>
<path d="M78.889 25.1478C76.6325 23.1984 71.9754 18.6844 71.3994 16.2246" stroke="url(#paint47_linear)" stroke-width="4" stroke-linecap="round" stroke-linejoin="round"/>
<path d="M74.9194 186.105C59.6492 171.312 56.3089 150.793 50.1053 148.407" stroke="url(#paint48_linear)" stroke-linecap="round" stroke-linejoin="round"/>
<path d="M43.9017 118.344C39.6954 128.842 39.607 149.362 52.014 150.316C54.393 150.499 58.2176 132.66 43.9017 118.344Z" fill="url(#paint49_linear)"/>
<path d="M67.1278 135.688C59.0609 139.606 53.9228 150.793 57.2632 157.951C58.3646 160.311 75.3966 146.021 67.1278 135.688Z" fill="url(#paint50_linear)"/>
<path d="M78.4852 150.871C70.4183 154.789 62.5122 167.495 65.8526 174.653C66.954 177.013 82.0772 167.495 78.4852 150.871Z" fill="url(#paint51_linear)"/>
<path d="M39.1299 175.687C45.3334 182.288 61.5132 181.208 66.0419 174.736C67.5351 172.602 47.7194 166.541 39.1299 175.687Z" fill="url(#paint52_linear)"/>
<path d="M31.4948 155.088C37.6983 161.689 48.1965 161.769 56.786 157.951C59.166 156.893 40.5614 148.407 31.4948 155.088Z" fill="url(#paint53_linear)"/>
<path d="M32.3425 109.304C28.5194 107.702 27.3568 101.315 27.2533 98.322C28.0624 97.397 23.0911 96.8585 23.0524 96.2804C23.0215 95.818 25.5057 95.3422 26.7517 95.1621C25.1713 93.2356 25.1326 92.6576 24.7856 91.8098C24.2949 90.6109 28.6396 93.0036 28.0228 92.4642C27.5295 92.0327 28.5874 89.3298 29.178 88.0323C29.2937 88.3149 29.5869 89.8049 29.8343 93.5043C35.3441 89.0714 40.3928 90.766 42.8209 92.3455C45.2491 93.9249 48.9502 101.516 44.9435 106.719C40.9368 111.922 37.1215 111.307 32.3425 109.304Z" fill="url(#paint54_linear)"/>
<path d="M46.3038 137.614C44.6495 140.923 38.894 141.578 36.223 141.492C35.4476 140.716 34.6721 145.11 34.1551 145.11C33.7415 145.11 33.4658 142.87 33.3797 141.75C31.5703 143.042 31.0533 143.042 30.2779 143.301C29.1813 143.667 31.5703 139.941 31.0533 140.458C30.6398 140.871 28.2962 139.768 27.1761 139.165C27.4346 139.079 28.7787 138.907 32.0873 138.907C28.4685 133.737 30.2779 129.343 31.8288 127.275C33.3797 125.207 40.3587 122.364 44.7528 126.241C49.147 130.118 48.3716 133.479 46.3038 137.614Z" fill="url(#paint55_linear)"/>
<path d="M51.5369 99.2563C53.0639 90.0942 59.4901 88.4399 62.5123 88.758C69.7657 89.5215 71.8971 96.075 72.0562 99.2563C70.6246 105.46 68.2386 108.323 62.0351 109.277C54.8772 107.846 51.5369 102.119 51.5369 99.2563Z" fill="url(#paint56_linear)"/>
<path d="M64.4211 97.3475C64.8028 97.3475 64.5801 95.7569 64.4211 94.9615C65.0573 95.9159 66.3299 97.7293 66.3299 97.3475C66.3299 96.8703 68.2386 97.3475 69.193 97.8247C70.1474 98.3019 69.193 100.211 69.193 101.165C69.193 102.119 66.8071 100.211 66.8071 101.642C66.8071 102.788 64.8983 104.028 63.9439 104.505C63.4667 103.233 62.9895 100.688 64.8983 100.688C67.2842 100.688 60.1263 98.3019 60.1263 97.8247C60.1263 97.3475 63.9439 97.3475 64.4211 97.3475Z" fill="#8360E2" fill-opacity="0.39" stroke="#8360E2" stroke-opacity="0.4" stroke-linecap="round" stroke-linejoin="round"/>
<path d="M84.0876 225.804C82.5646 198.695 88.0473 192.299 107.237 167.018" stroke="url(#paint57_linear)" stroke-linecap="round" stroke-linejoin="round"/>
<line y1="-0.5" x2="3.6551" y2="-0.5" transform="matrix(0 1 1 0 104.8 167.018)" stroke="#80C7AE"/>
<path d="M107.726 169.784L103.581 171.891" stroke="url(#paint58_linear)"/>
<line y1="-0.5" x2="3.10624" y2="-0.5" transform="matrix(0.196116 0.980581 0.980581 -0.196116 101.145 171.891)" stroke="url(#paint59_linear)"/>
<line y1="-0.5" x2="4.43492" y2="-0.5" transform="matrix(-0.961524 0.274721 0.274721 0.961524 105.409 174.328)" stroke="url(#paint60_linear)"/>
<line y1="-0.5" x2="5.51639" y2="-0.5" transform="matrix(-0.993884 0.110432 0.110432 0.993884 102.363 180.42)" stroke="#80C7AE"/>
<line y1="-0.5" x2="4.43492" y2="-0.5" transform="matrix(0.274721 0.961524 0.961524 -0.274721 96.2712 176.156)" stroke="url(#paint61_linear)"/>
<line y1="-0.5" x2="8.01256" y2="-0.5" transform="matrix(-0.988372 0.152057 0.152057 0.988372 101.145 184.684)" stroke="#80C7AE"/>
<line y1="-0.5" x2="5.61639" y2="-0.5" transform="matrix(0.21693 0.976187 0.976187 -0.21693 92.6161 179.811)" stroke="url(#paint62_linear)"/>
<path d="M98.0092 189.266L89.8748 191.69" stroke="#6FB3A0"/>
<line y1="-0.5" x2="5.4487" y2="-0.5" transform="matrix(0.447214 0.894427 0.894427 -0.447214 88.3518 185.902)" stroke="url(#paint63_linear)"/>
<line y1="-0.5" x2="7.10424" y2="-0.5" transform="matrix(0.514496 0.857493 0.857493 -0.514496 82.26 195.649)" stroke="url(#paint64_linear)"/>
<line y1="-0.5" x2="7.36079" y2="-0.5" transform="matrix(-0.910366 0.413803 0.413803 0.910366 92.6161 199.304)" stroke="url(#paint65_linear)"/>
<line y1="-0.5" x2="7.91939" y2="-0.5" transform="matrix(-0.923077 0.384615 0.384615 0.923077 95.0529 193.822)" stroke="url(#paint66_linear)"/>
<line y1="-0.5" x2="6.27193" y2="-0.5" transform="matrix(0.485643 0.874157 0.874157 -0.485643 84.6968 190.776)" stroke="url(#paint67_linear)"/>
<line y1="-0.5" x2="6.58933" y2="-0.5" transform="matrix(-0.83205 0.5547 0.5547 0.83205 90.1793 204.787)" stroke="url(#paint68_linear)"/>
<line y1="-0.5" x2="7.33554" y2="-0.5" transform="matrix(0.664364 0.747409 0.747409 -0.664364 79.8232 202.35)" stroke="#519289"/>
<line y1="-0.5" x2="5.61639" y2="-0.5" transform="matrix(-0.759257 0.650791 0.650791 0.759257 88.3518 209.661)" stroke="#519289"/>
<line y1="-0.5" x2="7.33554" y2="-0.5" transform="matrix(0.664364 0.747409 0.747409 -0.664364 79.214 207.833)" stroke="url(#paint69_linear)"/>
<line y1="-0.5" x2="3.90068" y2="-0.5" transform="matrix(-0.780869 0.624695 0.624695 0.780869 87.1334 215.752)" stroke="url(#paint70_linear)"/>
<line y1="-0.5" x2="4.39288" y2="-0.5" transform="matrix(0.679205 0.733949 0.733949 -0.679205 80.9016 215.538)" stroke="url(#paint71_linear)"/>
<path d="M13.3864 203.422C4.22429 191.206 0.661248 184.334 0.0249898 182.425C-0.810675 180.517 19.5899 199.127 19.5899 197.696C19.5899 196.55 18.9537 190.22 18.6355 187.197C18.6355 185.67 26.7478 196.264 32.4741 200.082C32.4741 195.787 31.0426 194.832 32.4741 192.447C33.6526 190.482 39.1549 206.126 41.0636 212.966C43.9268 223.941 48.2215 224.418 27.7022 224.418C19.5664 224.418 12.1858 217.208 10.4242 215.602C10.2363 215.551 10.1049 215.47 10.0461 215.352C9.97363 215.207 10.109 215.315 10.4242 215.602C11.7598 215.968 15.9489 214.816 17.204 214.397C18.6355 213.92 1.93376 203.422 3.36534 202.468C4.79692 201.513 14.3408 205.808 13.3864 203.422Z" fill="url(#paint72_linear)"/>
<path d="M32.8277 241.349C22.902 232.187 29.6464 221.944 34.2592 217.967C38.8721 213.99 50.7701 208.996 61.4593 220.83C107.747 290.977 118.245 305.293 112.042 310.065C105.838 314.837 45.2347 252.802 32.8277 241.349Z" fill="url(#paint73_linear)"/>
<path d="M235.734 388.913C239.551 389.676 239.551 384.141 239.074 381.278C241.746 382.423 245.755 376.983 245.755 373.643C252.435 368.393 266.035 372.688 270.092 364.576C271.046 362.667 269.455 360.599 270.092 358.372C269.71 354.173 291.088 355.509 296.337 345.011C295.574 346.538 292.52 344.375 291.088 343.102C301.109 339.285 313.516 326.878 322.583 325.923C326.4 331.649 311.607 367.916 308.267 369.348C304.927 370.779 307.313 358.372 305.404 359.804C291.088 396.071 283.93 392.73 281.067 393.207C278.204 393.685 281.544 383.186 280.113 381.278C278.681 379.369 269.614 392.73 268.183 395.593C260.929 395.593 258.798 399.411 258.639 401.32C248.618 399.888 240.506 406.569 225.235 406.569C230.484 392.73 231.916 391.299 235.734 388.913Z" fill="url(#paint74_linear)"/>
<path d="M336.899 310.176C304.449 338.33 308.744 361.235 248.141 387.958" stroke="url(#paint75_linear)" stroke-width="2" stroke-linecap="round" stroke-linejoin="round"/>
<path d="M314.544 287.874C302.84 275.819 306.207 260.248 309.353 253.97C309.883 252.913 311.799 250.424 312.562 249.572C351.766 205.762 329.85 202.643 347.579 202.643C366.467 202.643 357.489 248.778 357.489 258.208C357.489 289.656 329.174 302.942 314.544 287.874Z" fill="url(#paint76_linear)"/>
<path d="M331.186 229.61C331.172 228.576 330.863 228.124 330.218 226.667C336.421 217.123 333.643 200.176 346.674 200.953C351.408 200.306 361.775 206.068 359.804 229.53C358.761 228.092 356.9 225.544 356.426 224.617C356.418 226.59 354.458 236.162 350.546 233.981C346.19 231.552 347.642 225.724 346.674 224.753C345.706 223.781 342.318 231.552 340.382 231.552C338.446 231.552 340.382 222.81 338.446 221.838C336.51 220.867 331.204 230.981 331.186 229.61Z" fill="url(#paint77_linear)"/>
<path d="M346.92 201.853C347.556 199.626 346.824 194.313 346.442 192.786" stroke="#469D68" stroke-linecap="round" stroke-linejoin="round"/>
<path d="M355.032 297.7C352.328 303.904 344.152 318.792 333.081 328.718" stroke="url(#paint78_linear)" stroke-width="2" stroke-linecap="round" stroke-linejoin="round"/>
<path d="M355.032 297.7C352.328 303.904 344.152 318.792 333.081 328.718" stroke="url(#paint79_linear)" stroke-width="2" stroke-linecap="round" stroke-linejoin="round"/>
<path d="M370.779 307.244C365.53 313.448 348.828 322.514 333.081 328.718" stroke="url(#paint80_linear)" stroke-width="2" stroke-linecap="round" stroke-linejoin="round"/>
<path d="M370.779 307.244C365.53 313.448 348.828 322.514 333.081 328.718" stroke="url(#paint81_linear)" stroke-width="2" stroke-linecap="round" stroke-linejoin="round"/>
<path d="M383.664 321.56C376.983 326.332 355.509 328.718 333.081 328.718" stroke="url(#paint82_linear)" stroke-width="2" stroke-linecap="round" stroke-linejoin="round"/>
<path d="M383.664 321.56C376.983 326.332 355.509 328.718 333.081 328.718" stroke="url(#paint83_linear)" stroke-width="2" stroke-linecap="round" stroke-linejoin="round"/>
<path d="M352.192 290.733C352.732 288.295 356.277 286.791 357.982 286.344C358.593 286.696 358.408 283.726 358.736 283.628C358.998 283.551 359.517 284.938 359.744 285.642C360.691 284.471 361.019 284.374 361.47 284.062C362.109 283.62 361.168 286.465 361.416 286.035C361.614 285.691 363.268 285.959 364.071 286.136C363.92 286.24 363.095 286.604 360.999 287.226C364.086 289.868 363.616 293.033 362.951 294.654C362.287 296.275 358.303 299.416 354.923 297.751C351.543 296.086 351.518 293.781 352.192 290.733Z" fill="url(#paint84_linear)"/>
<path d="M368.981 300.475C370.133 298.26 373.947 297.724 375.71 297.734C376.208 298.232 376.799 295.315 377.14 295.306C377.414 295.299 377.556 296.774 377.593 297.512C378.811 296.626 379.153 296.617 379.669 296.432C380.4 296.171 378.756 298.675 379.106 298.324C379.387 298.044 380.915 298.73 381.645 299.109C381.472 299.17 380.581 299.308 378.396 299.367C380.694 302.718 379.42 305.653 378.359 307.047C377.297 308.44 372.636 310.443 369.802 307.961C366.969 305.478 367.541 303.244 368.981 300.475Z" fill="url(#paint85_linear)"/>
<path d="M384.019 314.543C385.705 312.701 389.527 313.171 391.228 313.636C391.58 314.247 392.906 311.582 393.238 311.662C393.504 311.725 393.259 313.187 393.104 313.91C394.51 313.369 394.842 313.449 395.389 313.404C396.163 313.341 393.926 315.334 394.356 315.086C394.699 314.888 395.998 315.947 396.604 316.501C396.422 316.516 395.526 316.418 393.399 315.91C394.752 319.741 392.762 322.246 391.376 323.318C389.99 324.389 384.969 325.118 382.874 321.986C380.78 318.854 381.911 316.845 384.019 314.543Z" fill="url(#paint86_linear)"/>
<path d="M134.569 406.569C130.274 404.342 121.207 398.934 119.298 395.116" stroke="url(#paint87_linear)" stroke-width="5" stroke-linecap="round" stroke-linejoin="round"/>
<path d="M144.863 412.621C143.074 415.007 138.892 419.964 136.477 420.708" stroke="url(#paint88_linear)" stroke-width="4" stroke-linecap="round" stroke-linejoin="round"/>
<path d="M196.127 380.445C206.052 383.118 209.17 394.602 209.488 400.01C211.397 415.662 195.331 417.985 187.06 417.189C175.607 415.758 169.881 396.193 140.295 394.284C181.334 388.558 183.72 377.105 196.127 380.445Z" fill="url(#paint89_linear)"/>
<path d="M207.102 391.299H217.6V395.116H208.102L207.102 391.299Z" fill="#52B589"/>
<path d="M209.011 397.025H217.6V402.751H209.516L209.011 397.025Z" fill="#52B38B"/>
<path d="M75.4042 364.576C75.0224 349.687 88.9247 345.011 95.9235 344.534C103.559 344.534 117.874 351.692 115.488 367.439C113.102 383.186 104.513 387.481 95.9235 387.004C87.334 386.527 75.8814 383.186 75.4042 364.576Z" fill="url(#paint90_linear)"/>
<path d="M260.377 351.429C206.459 360.442 192.451 350.876 137.633 318.035" stroke="url(#paint91_linear)" stroke-linecap="round" stroke-linejoin="round"/>
<line y1="-0.5" x2="7.35912" y2="-0.5" transform="matrix(0.99401 -0.109285 -0.109285 -0.99401 138.17 322.912)" stroke="#80C7AE"/>
<path d="M143.061 316.447L148.191 324.278" stroke="url(#paint92_linear)"/>
<line y1="-0.5" x2="6.25405" y2="-0.5" transform="matrix(0.953275 -0.302105 -0.302105 -0.953275 148.727 329.155)" stroke="url(#paint93_linear)"/>
<line y1="-0.5" x2="8.9292" y2="-0.5" transform="matrix(0.378156 0.925742 0.925742 -0.378156 152.666 320.084)" stroke="url(#paint94_linear)"/>
<line y1="-0.5" x2="11.1066" y2="-0.5" transform="matrix(0.218387 0.975862 0.975862 -0.218387 165.528 324.84)" stroke="#80C7AE"/>
<line y1="-0.5" x2="8.9292" y2="-0.5" transform="matrix(0.925742 -0.378156 -0.378156 -0.925742 158.334 337.97)" stroke="url(#paint95_linear)"/>
<line y1="-0.5" x2="16.1324" y2="-0.5" transform="matrix(0.259161 0.965834 0.965834 -0.259161 174.33 326.34)" stroke="#80C7AE"/>
<line y1="-0.5" x2="11.308" y2="-0.5" transform="matrix(0.946633 -0.322314 -0.322314 -0.946633 166.453 344.48)" stroke="url(#paint96_linear)"/>
<path d="M184.191 331.607L190.83 347.353" stroke="#6FB3A0"/>
<line y1="-0.5" x2="10.9703" y2="-0.5" transform="matrix(0.840196 -0.542283 -0.542283 -0.840196 179.583 351.674)" stroke="url(#paint97_linear)"/>
<line y1="-0.5" x2="14.3036" y2="-0.5" transform="matrix(0.79613 -0.605126 -0.605126 -0.79613 200.43 361.721)" stroke="url(#paint98_linear)"/>
<line y1="-0.5" x2="14.8201" y2="-0.5" transform="matrix(0.510814 0.859691 0.859691 -0.510814 205.467 340.191)" stroke="url(#paint99_linear)"/>
<line y1="-0.5" x2="15.9448" y2="-0.5" transform="matrix(0.483191 0.875515 0.875515 -0.483191 193.958 336.521)" stroke="url(#paint100_linear)"/>
<line y1="-0.5" x2="12.6278" y2="-0.5" transform="matrix(0.815848 -0.578267 -0.578267 -0.815848 190.141 357.917)" stroke="url(#paint101_linear)"/>
<line y1="-0.5" x2="13.2668" y2="-0.5" transform="matrix(0.642309 0.766446 0.766446 -0.642309 216.975 343.861)" stroke="url(#paint102_linear)"/>
<line y1="-0.5" x2="14.7693" y2="-0.5" transform="matrix(0.670327 -0.742065 -0.742065 -0.670327 214.377 365.124)" stroke="#519289"/>
<line y1="-0.5" x2="11.308" y2="-0.5" transform="matrix(0.729869 0.683587 0.683587 -0.729869 227.131 346.447)" stroke="#519289"/>
<line y1="-0.5" x2="14.7693" y2="-0.5" transform="matrix(0.670327 -0.742065 -0.742065 -0.670327 225.484 365.136)" stroke="url(#paint103_linear)"/>
<line y1="-0.5" x2="7.85356" y2="-0.5" transform="matrix(0.706291 0.707922 0.707922 -0.706291 239.591 347.545)" stroke="url(#paint104_linear)"/>
<line y1="-0.5" x2="8.84456" y2="-0.5" transform="matrix(0.655325 -0.755347 -0.755347 -0.655325 240.533 360.064)" stroke="url(#paint105_linear)"/>
<path d="M380.366 355.156C370.911 351.339 358.182 381.451 365.185 389.037C370.911 395.241 389.044 367.086 380.366 355.156Z" stroke="#CCBAC1" stroke-linecap="round" stroke-linejoin="round"/>
<path d="M366.139 389.991C370.434 378.062 379.882 355.061 379.5 354.679" stroke="#CCBAC1" stroke-linecap="round" stroke-linejoin="round"/>
<path d="M337.03 374.244C333.69 382.356 340.077 399.416 348.122 401.849C354.209 403.69 351.823 379.016 337.03 374.244Z" stroke="#9E8690" stroke-linecap="round" stroke-linejoin="round"/>
<path d="M365.185 337.5C356.414 337.714 344.266 354.412 345.283 362.755C346.053 369.067 371.388 355.634 365.185 337.5Z" stroke="#9E8690" stroke-linecap="round" stroke-linejoin="round"/>
<path d="M345.62 363.746C350.869 351.339 364.421 337.5 365.185 337.5M337.03 374.244C341.325 383.311 348.292 402.685 349.437 401.921" stroke="#9E8690" stroke-linecap="round" stroke-linejoin="round"/>
<path d="M97.6569 280.59C89.5446 282.021 83.3359 300.135 88.0246 307.313C91.4534 312.562 109.11 290.134 97.6569 280.59Z" fill="url(#paint106_linear)"/>
<path d="M83.617 318.765C78.8451 322.106 74.5504 332.604 77.1219 340.716C79.0165 346.693 90.7749 323.537 83.617 318.765Z" fill="url(#paint107_linear)"/>
<path d="M49.1861 323.537C38.6527 327.355 32.8533 337.376 32.8533 345.965C32.8533 352.235 55.7586 329.741 49.1861 323.537Z" stroke="url(#paint108_linear)" stroke-linecap="round" stroke-linejoin="round"/>
<path d="M59.0521 320.674C53.298 323.159 62.8016 344.534 68.1626 344.534C71.5192 344.534 69.6012 322.662 59.0521 320.674Z" stroke="#9FBE9F" stroke-linecap="round" stroke-linejoin="round"/>
<path d="M44.6884 279.635C36.5761 281.067 43.453 305.777 51.0775 309.699C57.5726 313.039 59.4813 288.225 44.6884 279.635Z" fill="url(#paint109_linear)"/>
<path d="M63.6084 298.246C55.4962 299.678 70.4569 316.856 81.4324 315.425C88.6747 314.48 68.5481 297.374 63.6084 298.246Z" fill="url(#paint110_linear)"/>
<path d="M401.767 165.615C400.181 168.094 397.171 168.88 395.076 167.539C392.981 166.199 392.432 163.137 394.018 160.658C395.603 158.18 398.613 157.394 400.709 158.734C402.804 160.074 403.352 163.136 401.767 165.615Z" stroke="#88B097"/>
<path d="M407.493 254.373C405.908 256.852 402.898 257.638 400.802 256.297C398.707 254.957 398.159 251.895 399.744 249.416C401.33 246.938 404.34 246.152 406.435 247.492C408.53 248.832 409.079 251.894 407.493 254.373Z" stroke="#95B89C"/>
<ellipse cx="390.564" cy="238.73" rx="5.46361" ry="5.72632" transform="rotate(32.6055 390.564 238.73)" fill="url(#paint111_linear)"/>
<ellipse cx="390.193" cy="215.612" rx="5.8413" ry="5.23312" transform="rotate(32.6055 390.193 215.612)" fill="url(#paint112_linear)"/>
<ellipse cx="375.647" cy="207.559" rx="5.06546" ry="4.53805" transform="rotate(32.6055 375.647 207.559)" fill="url(#paint113_linear)"/>
<ellipse cx="391.986" cy="198.763" rx="5.59812" ry="5.04265" transform="rotate(-24.9068 391.986 198.763)" fill="url(#paint114_linear)"/>
<ellipse cx="385.946" cy="185.135" rx="5.27292" ry="4.53805" transform="rotate(32.6055 385.946 185.135)" fill="url(#paint115_linear)"/>
<ellipse cx="399.467" cy="226.496" rx="5.15199" ry="4.74497" transform="rotate(32.6055 399.467 226.496)" fill="url(#paint116_linear)"/>
<ellipse cx="375.058" cy="233.384" rx="5.8469" ry="4.99852" transform="rotate(32.6055 375.058 233.384)" fill="url(#paint117_linear)"/>
<ellipse cx="381.84" cy="255.08" rx="6.77128" ry="5.78543" transform="rotate(89.8164 381.84 255.08)" fill="url(#paint118_linear)"/>
</g>
<defs>
<linearGradient id="paint0_linear" x1="399.672" y1="135.553" x2="398.649" y2="117.679" gradientUnits="userSpaceOnUse">
<stop stop-color="#C7AB98"/>
<stop offset="1" stop-color="#B99A95"/>
</linearGradient>
<linearGradient id="paint1_linear" x1="384.302" y1="125.221" x2="391.761" y2="133.506" gradientUnits="userSpaceOnUse">
<stop stop-color="#C7AB98"/>
<stop offset="1" stop-color="#B99A95"/>
</linearGradient>
<linearGradient id="paint2_linear" x1="391.696" y1="101.903" x2="387.156" y2="112.083" gradientUnits="userSpaceOnUse">
<stop stop-color="#C7AB98"/>
<stop offset="1" stop-color="#B99A95"/>
</linearGradient>
<linearGradient id="paint3_linear" x1="303.495" y1="6.68076" x2="339.762" y2="87.8036" gradientUnits="userSpaceOnUse">
<stop offset="0.239583" stop-color="#80C7AE"/>
<stop offset="1" stop-color="#519289"/>
</linearGradient>
<linearGradient id="paint4_linear" x1="303.018" y1="10.9755" x2="309.221" y2="13.8387" gradientUnits="userSpaceOnUse">
<stop stop-color="#519289"/>
<stop offset="1" stop-color="#80C7AE"/>
</linearGradient>
<linearGradient id="paint5_linear" x1="312.08" y1="18.6097" x2="313.488" y2="14.3041" gradientUnits="userSpaceOnUse">
<stop stop-color="#80C7AE"/>
<stop offset="1" stop-color="#519289"/>
</linearGradient>
<linearGradient id="paint6_linear" x1="309.699" y1="19.0878" x2="309.424" y2="20.0493" gradientUnits="userSpaceOnUse">
<stop stop-color="#80C7AE"/>
<stop offset="1" stop-color="#80C7AE"/>
</linearGradient>
<linearGradient id="paint7_linear" x1="319.72" y1="24.3369" x2="318.758" y2="24.0622" gradientUnits="userSpaceOnUse">
<stop stop-color="#80C7AE"/>
<stop offset="1" stop-color="#80C7AE"/>
</linearGradient>
<linearGradient id="paint8_linear" x1="325.446" y1="31.0176" x2="324.47" y2="30.8007" gradientUnits="userSpaceOnUse">
<stop stop-color="#80C7AE"/>
<stop offset="1" stop-color="#80C7AE"/>
</linearGradient>
<linearGradient id="paint9_linear" x1="333.586" y1="36.7577" x2="329.777" y2="43.9204" gradientUnits="userSpaceOnUse">
<stop stop-color="#519289"/>
<stop offset="1" stop-color="#6FB4A1"/>
</linearGradient>
<linearGradient id="paint10_linear" x1="339.762" y1="56.3089" x2="338.904" y2="55.7944" gradientUnits="userSpaceOnUse">
<stop stop-color="#519289"/>
<stop offset="1" stop-color="#80C7AE"/>
</linearGradient>
<linearGradient id="paint11_linear" x1="331.649" y1="59.6492" x2="331.236" y2="60.5596" gradientUnits="userSpaceOnUse">
<stop stop-color="#519289"/>
<stop offset="1" stop-color="#80C7AE"/>
</linearGradient>
<linearGradient id="paint12_linear" x1="328.309" y1="51.0598" x2="327.924" y2="51.9828" gradientUnits="userSpaceOnUse">
<stop stop-color="#519289"/>
<stop offset="1" stop-color="#80C7AE"/>
</linearGradient>
<linearGradient id="paint13_linear" x1="336.421" y1="48.1966" x2="335.547" y2="47.711" gradientUnits="userSpaceOnUse">
<stop offset="0.0572917" stop-color="#519289"/>
<stop offset="0.28125" stop-color="#80C7AE"/>
</linearGradient>
<linearGradient id="paint14_linear" x1="334.513" y1="68.7159" x2="333.958" y2="69.548" gradientUnits="userSpaceOnUse">
<stop stop-color="#519289"/>
<stop offset="1" stop-color="#80C7AE"/>
</linearGradient>
<linearGradient id="paint15_linear" x1="343.579" y1="74.9194" x2="342.832" y2="74.2551" gradientUnits="userSpaceOnUse">
<stop stop-color="#519289"/>
<stop offset="1" stop-color="#80C7AE"/>
</linearGradient>
<linearGradient id="paint16_linear" x1="337.376" y1="84.9405" x2="336.751" y2="85.7214" gradientUnits="userSpaceOnUse">
<stop stop-color="#519289"/>
<stop offset="1" stop-color="#80C7AE"/>
</linearGradient>
<linearGradient id="paint17_linear" x1="342.416" y1="85.2219" x2="341.682" y2="84.5427" gradientUnits="userSpaceOnUse">
<stop stop-color="#519289"/>
<stop offset="1" stop-color="#80C7AE"/>
</linearGradient>
<linearGradient id="paint18_linear" x1="351.513" y1="74.6519" x2="365.828" y2="102.806" gradientUnits="userSpaceOnUse">
<stop stop-color="#D39DF4"/>
<stop offset="1" stop-color="#835FE1"/>
</linearGradient>
<linearGradient id="paint19_linear" x1="355.808" y1="143.138" x2="329.171" y2="183.094" gradientUnits="userSpaceOnUse">
<stop stop-color="#51B26C"/>
<stop offset="1" stop-color="#449750"/>
</linearGradient>
<linearGradient id="paint20_linear" x1="372.286" y1="114.005" x2="360.603" y2="147.784" gradientUnits="userSpaceOnUse">
<stop offset="0.265625" stop-color="#5FCF97"/>
<stop offset="0.682292" stop-color="#48A057"/>
<stop offset="1" stop-color="#52B36E"/>
</linearGradient>
<linearGradient id="paint21_linear" x1="335.059" y1="133.421" x2="347.614" y2="155.166" gradientUnits="userSpaceOnUse">
<stop stop-color="#5DCA8C"/>
<stop offset="1" stop-color="#4EAB74"/>
</linearGradient>
<linearGradient id="paint22_linear" x1="324.074" y1="148.681" x2="338.034" y2="172.862" gradientUnits="userSpaceOnUse">
<stop stop-color="#63D7A1"/>
<stop offset="1" stop-color="#469A4F"/>
</linearGradient>
<linearGradient id="paint23_linear" x1="365.674" y1="173.575" x2="337.772" y2="173.575" gradientUnits="userSpaceOnUse">
<stop stop-color="#65DCA8"/>
<stop offset="1" stop-color="#449750"/>
</linearGradient>
<linearGradient id="paint24_linear" x1="373.567" y1="153.997" x2="347.207" y2="153.997" gradientUnits="userSpaceOnUse">
<stop stop-color="#5AC489"/>
<stop offset="0.307292" stop-color="#62D69E"/>
<stop offset="1" stop-color="#4DAA64"/>
</linearGradient>
<linearGradient id="paint25_linear" x1="277.48" y1="43.014" x2="307.543" y2="57.3298" gradientUnits="userSpaceOnUse">
<stop stop-color="#EDB270"/>
<stop offset="0.492606" stop-color="#F1DCB6"/>
<stop offset="1" stop-color="#EDA654"/>
</linearGradient>
<linearGradient id="paint26_linear" x1="288.02" y1="75.6748" x2="259.736" y2="85.5756" gradientUnits="userSpaceOnUse">
<stop stop-color="#EDB270"/>
<stop offset="0.492606" stop-color="#F1DCB6"/>
</linearGradient>
<linearGradient id="paint27_linear" x1="295.084" y1="118.172" x2="263.552" y2="107.908" gradientUnits="userSpaceOnUse">
<stop offset="0.492606" stop-color="#F1DCB6"/>
<stop offset="1" stop-color="#EDA654"/>
</linearGradient>
<linearGradient id="paint28_linear" x1="247.517" y1="79.6191" x2="222.112" y2="95.5117" gradientUnits="userSpaceOnUse">
<stop stop-color="#EDB270"/>
<stop offset="0.492606" stop-color="#F1DCB6"/>
</linearGradient>
<linearGradient id="paint29_linear" x1="249.095" y1="43.9019" x2="261.025" y2="47.2422" gradientUnits="userSpaceOnUse">
<stop offset="0.604167" stop-color="#EBC8BD"/>
<stop offset="0.895833" stop-color="#CCA7A8"/>
</linearGradient>
<linearGradient id="paint30_linear" x1="267.228" y1="4.77197" x2="252.913" y2="19.0878" gradientUnits="userSpaceOnUse">
<stop stop-color="#C9A5A6"/>
<stop offset="1" stop-color="#EAC8C0"/>
</linearGradient>
<linearGradient id="paint31_linear" x1="214.345" y1="72.8321" x2="204.859" y2="82.3174" gradientUnits="userSpaceOnUse">
<stop stop-color="#C9A5A6"/>
<stop offset="1" stop-color="#EAC8C0"/>
</linearGradient>
<linearGradient id="paint32_linear" x1="247.186" y1="29.1089" x2="217.6" y2="63.4668" gradientUnits="userSpaceOnUse">
<stop stop-color="#EB4858"/>
<stop offset="1" stop-color="#EB3223"/>
</linearGradient>
<radialGradient id="paint33_radial" cx="0" cy="0" r="1" gradientUnits="userSpaceOnUse" gradientTransform="translate(228.098 46.2878) rotate(95.6986) scale(24.4751 19.1124)">
<stop stop-color="#52B489"/>
<stop offset="1" stop-color="#44917B"/>
</radialGradient>
<radialGradient id="paint34_radial" cx="0" cy="0" r="1" gradientUnits="userSpaceOnUse" gradientTransform="translate(166.063 54.4001) rotate(73.16) scale(28.9459 27.4015)">
<stop stop-color="#EB54B9"/>
<stop offset="1" stop-color="#E93223"/>
</radialGradient>
<linearGradient id="paint35_linear" x1="115.066" y1="56.3089" x2="103.136" y2="107.846" gradientUnits="userSpaceOnUse">
<stop stop-color="#F6CE88"/>
<stop offset="0.60536" stop-color="#E99042"/>
<stop offset="1" stop-color="#EC4F50"/>
</linearGradient>
<linearGradient id="paint36_linear" x1="53.9856" y1="40.0843" x2="76.4137" y2="49.151" gradientUnits="userSpaceOnUse">
<stop stop-color="#63D7A1"/>
<stop offset="1" stop-color="#357B73"/>
</linearGradient>
<linearGradient id="paint37_linear" x1="47.3049" y1="41.9931" x2="69.733" y2="51.0597" gradientUnits="userSpaceOnUse">
<stop stop-color="#63D7A1"/>
<stop offset="1" stop-color="#357B73"/>
</linearGradient>
<linearGradient id="paint38_linear" x1="114.042" y1="89.7124" x2="97.8175" y2="133.614" gradientUnits="userSpaceOnUse">
<stop offset="0.0989583" stop-color="#EFD7D4"/>
<stop offset="0.421875" stop-color="#F4B5AC"/>
<stop offset="0.651042" stop-color="#B48490" stop-opacity="0.9"/>
<stop offset="0.875" stop-color="#F4B5AC"/>
</linearGradient>
<linearGradient id="paint39_linear" x1="141.627" y1="2.86321" x2="112.041" y2="88.2808" gradientUnits="userSpaceOnUse">
<stop stop-color="#C9CA9A"/>
<stop offset="1" stop-color="#32675F"/>
</linearGradient>
<linearGradient id="paint40_linear" x1="110.349" y1="2.86322" x2="110.349" y2="85.4177" gradientUnits="userSpaceOnUse">
<stop stop-color="#C3C698"/>
<stop offset="1" stop-color="#2A6263"/>
</linearGradient>
<linearGradient id="paint41_linear" x1="117.788" y1="3.8176" x2="117.788" y2="84.9405" gradientUnits="userSpaceOnUse">
<stop offset="0.09375" stop-color="#9FBDA0"/>
<stop offset="1" stop-color="#276062"/>
</linearGradient>
<linearGradient id="paint42_linear" x1="114.448" y1="3.34039" x2="114.448" y2="84.4633" gradientUnits="userSpaceOnUse">
<stop stop-color="#9FBDA0"/>
<stop offset="1" stop-color="#276062"/>
</linearGradient>
<linearGradient id="paint43_linear" x1="92.8358" y1="3.20526" x2="82.9205" y2="12.6934" gradientUnits="userSpaceOnUse">
<stop stop-color="#C7AB98"/>
<stop offset="1" stop-color="#B99A95"/>
</linearGradient>
<linearGradient id="paint44_linear" x1="78.1659" y1="44.7359" x2="88.3024" y2="35.7137" gradientUnits="userSpaceOnUse">
<stop stop-color="#C7AB98"/>
<stop offset="1" stop-color="#B99A95"/>
</linearGradient>
<linearGradient id="paint45_linear" x1="152.486" y1="124.101" x2="151.463" y2="106.227" gradientUnits="userSpaceOnUse">
<stop stop-color="#C7AB98"/>
<stop offset="1" stop-color="#B99A95"/>
</linearGradient>
<linearGradient id="paint46_linear" x1="92.9066" y1="30.2748" x2="93.983" y2="16.7474" gradientUnits="userSpaceOnUse">
<stop stop-color="#C7AB98"/>
<stop offset="1" stop-color="#B99A95"/>
</linearGradient>
<linearGradient id="paint47_linear" x1="70.4632" y1="15.1092" x2="78.7652" y2="25.8435" gradientUnits="userSpaceOnUse">
<stop stop-color="#C7AB98"/>
<stop offset="1" stop-color="#B99A95"/>
</linearGradient>
<linearGradient id="paint48_linear" x1="48.6738" y1="146.021" x2="74.4422" y2="184.674" gradientUnits="userSpaceOnUse">
<stop stop-color="#51B26C"/>
<stop offset="1" stop-color="#449750"/>
</linearGradient>
<linearGradient id="paint49_linear" x1="35.7895" y1="122.162" x2="55.3544" y2="145.067" gradientUnits="userSpaceOnUse">
<stop offset="0.265625" stop-color="#5FCF97"/>
<stop offset="0.682292" stop-color="#48A057"/>
<stop offset="1" stop-color="#52B36E"/>
</linearGradient>
<linearGradient id="paint50_linear" x1="68.7456" y1="136.622" x2="56.601" y2="157.657" gradientUnits="userSpaceOnUse">
<stop stop-color="#5DCA8C"/>
<stop offset="1" stop-color="#4EAB74"/>
</linearGradient>
<linearGradient id="paint51_linear" x1="79.3727" y1="151.383" x2="65.8675" y2="174.775" gradientUnits="userSpaceOnUse">
<stop stop-color="#63D7A1"/>
<stop offset="1" stop-color="#469A4F"/>
</linearGradient>
<linearGradient id="paint52_linear" x1="39.1299" y1="175.465" x2="66.1218" y2="175.465" gradientUnits="userSpaceOnUse">
<stop stop-color="#65DCA8"/>
<stop offset="1" stop-color="#449750"/>
</linearGradient>
<linearGradient id="paint53_linear" x1="31.4948" y1="156.526" x2="56.9944" y2="156.526" gradientUnits="userSpaceOnUse">
<stop stop-color="#5AC489"/>
<stop offset="0.307292" stop-color="#62D69E"/>
<stop offset="1" stop-color="#4DAA64"/>
</linearGradient>
<linearGradient id="paint54_linear" x1="22.0887" y1="94.8933" x2="48.3722" y2="101.555" gradientUnits="userSpaceOnUse">
<stop stop-color="#D39DF4"/>
<stop offset="0.46875" stop-color="#8260E3"/>
<stop offset="1" stop-color="#4E34D5"/>
</linearGradient>
<linearGradient id="paint55_linear" x1="26.2456" y1="131.228" x2="48.1965" y2="134.569" gradientUnits="userSpaceOnUse">
<stop stop-color="#C693F6"/>
<stop offset="0.677083" stop-color="#391FA0"/>
</linearGradient>
<linearGradient id="paint56_linear" x1="72.0562" y1="96.3931" x2="48.1965" y2="103.551" gradientUnits="userSpaceOnUse">
<stop stop-color="#6C4BCF"/>
<stop offset="0.78125" stop-color="#361E9F"/>
</linearGradient>
<linearGradient id="paint57_linear" x1="107.237" y1="167.018" x2="84.0876" y2="218.798" gradientUnits="userSpaceOnUse">
<stop offset="0.239583" stop-color="#80C7AE"/>
<stop offset="1" stop-color="#519289"/>
</linearGradient>
<linearGradient id="paint58_linear" x1="107.541" y1="169.759" x2="103.581" y2="171.587" gradientUnits="userSpaceOnUse">
<stop stop-color="#519289"/>
<stop offset="1" stop-color="#80C7AE"/>
</linearGradient>
<linearGradient id="paint59_linear" x1="2.80756" y1="0.0980584" x2="-0.0877483" y2="-0.122413" gradientUnits="userSpaceOnUse">
<stop stop-color="#80C7AE"/>
<stop offset="1" stop-color="#519289"/>
</linearGradient>
<linearGradient id="paint60_linear" x1="2.21746" y1="0" x2="2.21746" y2="1" gradientUnits="userSpaceOnUse">
<stop stop-color="#80C7AE"/>
<stop offset="1" stop-color="#80C7AE"/>
</linearGradient>
<linearGradient id="paint61_linear" x1="2.21746" y1="0" x2="2.21746" y2="1" gradientUnits="userSpaceOnUse">
<stop stop-color="#80C7AE"/>
<stop offset="1" stop-color="#80C7AE"/>
</linearGradient>
<linearGradient id="paint62_linear" x1="2.8082" y1="0" x2="2.8082" y2="1" gradientUnits="userSpaceOnUse">
<stop stop-color="#80C7AE"/>
<stop offset="1" stop-color="#80C7AE"/>
</linearGradient>
<linearGradient id="paint63_linear" x1="0.136218" y1="-0.67082" x2="5.31474" y2="-0.587802" gradientUnits="userSpaceOnUse">
<stop stop-color="#519289"/>
<stop offset="1" stop-color="#6FB4A1"/>
</linearGradient>
<linearGradient id="paint64_linear" x1="3.55212" y1="0" x2="3.55212" y2="1" gradientUnits="userSpaceOnUse">
<stop stop-color="#519289"/>
<stop offset="1" stop-color="#80C7AE"/>
</linearGradient>
<linearGradient id="paint65_linear" x1="3.6804" y1="0" x2="3.6804" y2="1" gradientUnits="userSpaceOnUse">
<stop stop-color="#519289"/>
<stop offset="1" stop-color="#80C7AE"/>
</linearGradient>
<linearGradient id="paint66_linear" x1="3.95969" y1="0" x2="3.95969" y2="1" gradientUnits="userSpaceOnUse">
<stop stop-color="#519289"/>
<stop offset="1" stop-color="#80C7AE"/>
</linearGradient>
<linearGradient id="paint67_linear" x1="3.13596" y1="0" x2="3.13596" y2="1" gradientUnits="userSpaceOnUse">
<stop offset="0.0572917" stop-color="#519289"/>
<stop offset="0.28125" stop-color="#80C7AE"/>
</linearGradient>
<linearGradient id="paint68_linear" x1="3.29466" y1="0" x2="3.29466" y2="1" gradientUnits="userSpaceOnUse">
<stop stop-color="#519289"/>
<stop offset="1" stop-color="#80C7AE"/>
</linearGradient>
<linearGradient id="paint69_linear" x1="3.66777" y1="0" x2="3.66777" y2="1" gradientUnits="userSpaceOnUse">
<stop stop-color="#519289"/>
<stop offset="1" stop-color="#80C7AE"/>
</linearGradient>
<linearGradient id="paint70_linear" x1="1.95034" y1="0" x2="1.95034" y2="1" gradientUnits="userSpaceOnUse">
<stop stop-color="#519289"/>
<stop offset="1" stop-color="#80C7AE"/>
</linearGradient>
<linearGradient id="paint71_linear" x1="2.19644" y1="0" x2="2.19644" y2="1" gradientUnits="userSpaceOnUse">
<stop stop-color="#519289"/>
<stop offset="1" stop-color="#80C7AE"/>
</linearGradient>
<linearGradient id="paint72_linear" x1="1.93376" y1="184.334" x2="32.4741" y2="216.306" gradientUnits="userSpaceOnUse">
<stop offset="0.5" stop-color="#52B48A"/>
<stop offset="0.875" stop-color="#3F8D53"/>
</linearGradient>
<linearGradient id="paint73_linear" x1="34.2593" y1="217.967" x2="112.042" y2="310.065" gradientUnits="userSpaceOnUse">
<stop stop-color="#EC5749"/>
<stop offset="1" stop-color="#F3A973"/>
</linearGradient>
<linearGradient id="paint74_linear" x1="273.909" y1="357.418" x2="290.611" y2="385.095" gradientUnits="userSpaceOnUse">
<stop stop-color="#A4C1A5"/>
<stop offset="0.536458" stop-color="#52AE88"/>
<stop offset="1" stop-color="#2D6C6C"/>
</linearGradient>
<linearGradient id="paint75_linear" x1="336.899" y1="307.782" x2="294.585" y2="408.64" gradientUnits="userSpaceOnUse">
<stop stop-color="#902B3B"/>
<stop offset="0.979167" stop-color="#BD5F74"/>
</linearGradient>
<linearGradient id="paint76_linear" x1="357.326" y1="257.266" x2="310.607" y2="253.009" gradientUnits="userSpaceOnUse">
<stop stop-color="#24178B"/>
<stop offset="1" stop-color="#7D5BDC"/>
</linearGradient>
<linearGradient id="paint77_linear" x1="351.346" y1="215.524" x2="330.992" y2="225.183" gradientUnits="userSpaceOnUse">
<stop stop-color="#469D68"/>
<stop offset="1" stop-color="#52B489"/>
</linearGradient>
<linearGradient id="paint78_linear" x1="355.032" y1="296.746" x2="333.081" y2="329.195" gradientUnits="userSpaceOnUse">
<stop stop-color="#357A55"/>
<stop offset="0.979167" stop-color="#75BEA0"/>
</linearGradient>
<linearGradient id="paint79_linear" x1="355.032" y1="296.746" x2="333.081" y2="329.195" gradientUnits="userSpaceOnUse">
<stop stop-color="#357A55"/>
<stop offset="0.979167" stop-color="#75BEA0"/>
</linearGradient>
<linearGradient id="paint80_linear" x1="355.032" y1="296.746" x2="333.081" y2="329.195" gradientUnits="userSpaceOnUse">
<stop stop-color="#357A55"/>
<stop offset="0.979167" stop-color="#75BEA0"/>
</linearGradient>
<linearGradient id="paint81_linear" x1="355.032" y1="296.746" x2="333.081" y2="329.195" gradientUnits="userSpaceOnUse">
<stop stop-color="#357A55"/>
<stop offset="0.979167" stop-color="#75BEA0"/>
</linearGradient>
<linearGradient id="paint82_linear" x1="355.032" y1="296.746" x2="333.081" y2="329.195" gradientUnits="userSpaceOnUse">
<stop stop-color="#357A55"/>
<stop offset="0.979167" stop-color="#75BEA0"/>
</linearGradient>
<linearGradient id="paint83_linear" x1="355.032" y1="296.746" x2="333.081" y2="329.195" gradientUnits="userSpaceOnUse">
<stop stop-color="#357A55"/>
<stop offset="0.979167" stop-color="#75BEA0"/>
</linearGradient>
<linearGradient id="paint84_linear" x1="359.435" y1="282.887" x2="358.933" y2="299.106" gradientUnits="userSpaceOnUse">
<stop stop-color="#EA366B"/>
<stop offset="1" stop-color="#EB3566"/>
</linearGradient>
<linearGradient id="paint85_linear" x1="378.008" y1="294.771" x2="373.325" y2="310.307" gradientUnits="userSpaceOnUse">
<stop stop-color="#EA366B"/>
<stop offset="1" stop-color="#EB3566"/>
</linearGradient>
<linearGradient id="paint86_linear" x1="394.214" y1="311.369" x2="385.67" y2="325.164" gradientUnits="userSpaceOnUse">
<stop stop-color="#EA366B"/>
<stop offset="1" stop-color="#EB3566"/>
</linearGradient>
<linearGradient id="paint87_linear" x1="117.39" y1="393.685" x2="135.523" y2="406.569" gradientUnits="userSpaceOnUse">
<stop stop-color="#C7AB98"/>
<stop offset="1" stop-color="#B99A95"/>
</linearGradient>
<linearGradient id="paint88_linear" x1="135.429" y1="421.719" x2="145.566" y2="412.696" gradientUnits="userSpaceOnUse">
<stop stop-color="#C7AB98"/>
<stop offset="1" stop-color="#B99A95"/>
</linearGradient>
<linearGradient id="paint89_linear" x1="208.056" y1="397.025" x2="141.249" y2="394.162" gradientUnits="userSpaceOnUse">
<stop stop-color="#AC232C"/>
<stop offset="0.463542" stop-color="#EA334A"/>
</linearGradient>
<linearGradient id="paint90_linear" x1="107.846" y1="342.625" x2="83.0316" y2="382.709" gradientUnits="userSpaceOnUse">
<stop stop-color="#EB3223"/>
<stop offset="0.671875" stop-color="#EF829E"/>
<stop offset="1" stop-color="#EC4A59"/>
</linearGradient>
<linearGradient id="paint91_linear" x1="137.633" y1="318.035" x2="246.357" y2="352.97" gradientUnits="userSpaceOnUse">
<stop offset="0.239583" stop-color="#80C7AE"/>
<stop offset="1" stop-color="#519289"/>
</linearGradient>
<linearGradient id="paint92_linear" x1="143.053" y1="316.822" x2="147.581" y2="324.345" gradientUnits="userSpaceOnUse">
<stop stop-color="#519289"/>
<stop offset="1" stop-color="#80C7AE"/>
</linearGradient>
<linearGradient id="paint93_linear" x1="5.6527" y1="0.0980584" x2="-0.075821" y2="-0.78021" gradientUnits="userSpaceOnUse">
<stop stop-color="#80C7AE"/>
<stop offset="1" stop-color="#519289"/>
</linearGradient>
<linearGradient id="paint94_linear" x1="4.4646" y1="0" x2="4.4646" y2="1" gradientUnits="userSpaceOnUse">
<stop stop-color="#80C7AE"/>
<stop offset="1" stop-color="#80C7AE"/>
</linearGradient>
<linearGradient id="paint95_linear" x1="4.4646" y1="0" x2="4.4646" y2="1" gradientUnits="userSpaceOnUse">
<stop stop-color="#80C7AE"/>
<stop offset="1" stop-color="#80C7AE"/>
</linearGradient>
<linearGradient id="paint96_linear" x1="5.65398" y1="0" x2="5.65398" y2="1" gradientUnits="userSpaceOnUse">
<stop stop-color="#80C7AE"/>
<stop offset="1" stop-color="#80C7AE"/>
</linearGradient>
<linearGradient id="paint97_linear" x1="0.274258" y1="-0.67082" x2="10.6924" y2="-0.334554" gradientUnits="userSpaceOnUse">
<stop stop-color="#519289"/>
<stop offset="1" stop-color="#6FB4A1"/>
</linearGradient>
<linearGradient id="paint98_linear" x1="7.15178" y1="0" x2="7.15178" y2="1" gradientUnits="userSpaceOnUse">
<stop stop-color="#519289"/>
<stop offset="1" stop-color="#80C7AE"/>
</linearGradient>
<linearGradient id="paint99_linear" x1="7.41005" y1="0" x2="7.41005" y2="1" gradientUnits="userSpaceOnUse">
<stop stop-color="#519289"/>
<stop offset="1" stop-color="#80C7AE"/>
</linearGradient>
<linearGradient id="paint100_linear" x1="7.97238" y1="0" x2="7.97238" y2="1" gradientUnits="userSpaceOnUse">
<stop stop-color="#519289"/>
<stop offset="1" stop-color="#80C7AE"/>
</linearGradient>
<linearGradient id="paint101_linear" x1="6.3139" y1="0" x2="6.3139" y2="1" gradientUnits="userSpaceOnUse">
<stop offset="0.0572917" stop-color="#519289"/>
<stop offset="0.28125" stop-color="#80C7AE"/>
</linearGradient>
<linearGradient id="paint102_linear" x1="6.63342" y1="0" x2="6.63342" y2="1" gradientUnits="userSpaceOnUse">
<stop stop-color="#519289"/>
<stop offset="1" stop-color="#80C7AE"/>
</linearGradient>
<linearGradient id="paint103_linear" x1="7.38463" y1="0" x2="7.38463" y2="1" gradientUnits="userSpaceOnUse">
<stop stop-color="#519289"/>
<stop offset="1" stop-color="#80C7AE"/>
</linearGradient>
<linearGradient id="paint104_linear" x1="3.92678" y1="0" x2="3.92678" y2="1" gradientUnits="userSpaceOnUse">
<stop stop-color="#519289"/>
<stop offset="1" stop-color="#80C7AE"/>
</linearGradient>
<linearGradient id="paint105_linear" x1="4.42228" y1="0" x2="4.42228" y2="1" gradientUnits="userSpaceOnUse">
<stop stop-color="#519289"/>
<stop offset="1" stop-color="#80C7AE"/>
</linearGradient>
<linearGradient id="paint106_linear" x1="93.9397" y1="280.59" x2="93.9397" y2="308.098" gradientUnits="userSpaceOnUse">
<stop stop-color="#E5F0E6"/>
<stop offset="0.536458" stop-color="#9EBE9F"/>
</linearGradient>
<linearGradient id="paint107_linear" x1="81.1229" y1="320.197" x2="84.9404" y2="335.944" gradientUnits="userSpaceOnUse">
<stop stop-color="#2E6D6D"/>
<stop offset="0.421875" stop-color="#80AF99"/>
<stop offset="0.916667" stop-color="#307274"/>
</linearGradient>
<linearGradient id="paint108_linear" x1="49.0779" y1="323.537" x2="32.3761" y2="345.965" gradientUnits="userSpaceOnUse">
<stop stop-color="#B1C5B2"/>
<stop offset="0.930283" stop-color="#347275"/>
</linearGradient>
<linearGradient id="paint109_linear" x1="41.0386" y1="279.635" x2="56.3088" y2="304.449" gradientUnits="userSpaceOnUse">
<stop stop-color="#DCECDC"/>
<stop offset="1" stop-color="#9FBE9F"/>
</linearGradient>
<linearGradient id="paint110_linear" x1="68.2387" y1="297.769" x2="77.3054" y2="316.856" gradientUnits="userSpaceOnUse">
<stop stop-color="#9FBE9F"/>
<stop offset="1" stop-color="#4F817A"/>
</linearGradient>
<linearGradient id="paint111_linear" x1="390.564" y1="233.003" x2="390.564" y2="244.456" gradientUnits="userSpaceOnUse">
<stop stop-color="#E2E5E2"/>
<stop offset="1" stop-color="#A3BCAA"/>
</linearGradient>
<linearGradient id="paint112_linear" x1="384.431" y1="214.294" x2="395.379" y2="216.355" gradientUnits="userSpaceOnUse">
<stop stop-color="#BECCBF"/>
<stop offset="0.46875" stop-color="#E2E5E2"/>
<stop offset="1" stop-color="#BECCBF"/>
</linearGradient>
<linearGradient id="paint113_linear" x1="369.58" y1="209.764" x2="380.144" y2="204.14" gradientUnits="userSpaceOnUse">
<stop stop-color="#4F847D"/>
<stop offset="0.671875" stop-color="#9EBE9F"/>
</linearGradient>
<linearGradient id="paint114_linear" x1="396.77" y1="197.025" x2="385.362" y2="201.199" gradientUnits="userSpaceOnUse">
<stop stop-color="#A7C3A8"/>
<stop offset="1" stop-color="#CEDDCE"/>
</linearGradient>
<linearGradient id="paint115_linear" x1="379.049" y1="183.901" x2="392.007" y2="184.676" gradientUnits="userSpaceOnUse">
<stop stop-color="#50887D"/>
<stop offset="1" stop-color="#9EBE9F"/>
</linearGradient>
<linearGradient id="paint116_linear" x1="398.983" y1="219.644" x2="400.667" y2="235.561" gradientUnits="userSpaceOnUse">
<stop stop-color="#A7C1AC"/>
<stop offset="0.484375" stop-color="#E5E7E7"/>
<stop offset="1" stop-color="#9EBEA1"/>
</linearGradient>
<linearGradient id="paint117_linear" x1="368.573" y1="232.957" x2="380.068" y2="234.102" gradientUnits="userSpaceOnUse">
<stop stop-color="#649582"/>
<stop offset="1" stop-color="#9DBB9F"/>
</linearGradient>
<linearGradient id="paint118_linear" x1="376.827" y1="249.422" x2="385.386" y2="258.994" gradientUnits="userSpaceOnUse">
<stop stop-color="#2F7071"/>
<stop offset="1" stop-color="#80A992"/>
</linearGradient>
<clipPath id="clip0">
<rect width="411" height="422" fill="white"/>
</clipPath>
</defs>
</svg>
