<svg width="54" height="103" viewBox="0 0 54 103" fill="none" xmlns="http://www.w3.org/2000/svg">
<path d="M8.18578 96.0417C-3.51794 83.9871 -0.151551 68.4165 2.99461 62.138C3.52439 61.0807 5.44079 58.5927 6.20352 57.7404C45.408 13.9307 23.4922 10.8114 41.2204 10.8115C60.1092 10.8115 51.1308 56.9464 51.1308 66.376C51.1308 97.8246 22.8154 111.11 8.18578 96.0417Z" fill="url(#paint0_linear)"/>
<path d="M24.8276 37.7778C24.814 36.7439 24.5049 36.2922 23.8596 34.8351C30.0631 25.2913 27.2846 8.34439 40.3155 9.12151C45.0498 8.47391 55.4167 14.2363 53.4456 37.6983C52.4033 36.2601 50.5419 33.7124 50.0679 32.7851C50.0597 34.7583 48.0995 44.3301 44.1874 42.1491C39.8315 39.7206 41.2835 33.8922 40.3155 32.9208C39.3475 31.9494 35.9595 39.7206 34.0235 39.7206C32.0876 39.7206 34.0235 30.978 32.0876 30.0066C30.1516 29.0352 24.8457 39.149 24.8276 37.7778Z" fill="url(#paint1_linear)"/>
<path d="M40.5614 10.0211C41.1977 7.79415 40.466 2.4814 40.0842 0.954376" stroke="#469D68" stroke-linecap="round" stroke-linejoin="round"/>
<defs>
<linearGradient id="paint0_linear" x1="50.9678" y1="65.4341" x2="4.24901" y2="61.1776" gradientUnits="userSpaceOnUse">
<stop stop-color="#24178B"/>
<stop offset="1" stop-color="#7D5BDC"/>
</linearGradient>
<linearGradient id="paint1_linear" x1="44.9882" y1="23.6925" x2="24.634" y2="33.3509" gradientUnits="userSpaceOnUse">
<stop stop-color="#469D68"/>
<stop offset="1" stop-color="#52B489"/>
</linearGradient>
</defs>
</svg>
