<svg width="113" height="98" viewBox="0 0 113 98" fill="none" xmlns="http://www.w3.org/2000/svg">
<path d="M10.4983 79.7369C14.3158 80.5004 14.3158 74.965 13.8386 72.1018C16.5109 73.2471 20.5193 67.8071 20.5193 64.4667C27.2 59.2176 40.8 63.5123 44.8562 55.4C45.8106 53.4913 44.2199 51.4234 44.8562 49.1965C44.4744 44.9972 65.8527 46.3334 71.1018 35.8351C70.3383 37.3621 67.2843 35.1989 65.8527 33.9263C75.8738 30.1088 88.2808 17.7018 97.3475 16.7474C101.165 22.4737 86.372 58.7404 83.0317 60.172C79.6913 61.6036 82.0773 49.1965 80.1685 50.6281C65.8527 86.8948 58.6948 83.5545 55.8316 84.0317C52.9685 84.5089 56.3088 74.0106 54.8772 72.1018C53.4457 70.193 44.379 83.5545 42.9474 86.4176C35.6941 86.4176 33.5626 90.2352 33.4035 92.1439C23.3825 90.7123 15.2702 97.3931 0 97.3931C5.24913 83.5545 6.68071 82.1229 10.4983 79.7369Z" fill="url(#paint0_linear)"/>
<path d="M111.663 1C79.2141 29.1544 83.5088 52.0597 22.9053 78.7825" stroke="url(#paint1_linear)" stroke-width="2" stroke-linecap="round" stroke-linejoin="round"/>
<defs>
<linearGradient id="paint0_linear" x1="48.6737" y1="48.2421" x2="65.3755" y2="75.9194" gradientUnits="userSpaceOnUse">
<stop stop-color="#A4C1A5"/>
<stop offset="0.536458" stop-color="#52AE88"/>
<stop offset="1" stop-color="#2D6C6C"/>
</linearGradient>
<linearGradient id="paint1_linear" x1="111.663" y1="-1.39331" x2="69.35" y2="99.4643" gradientUnits="userSpaceOnUse">
<stop stop-color="#902B3B"/>
<stop offset="0.979167" stop-color="#BD5F74"/>
</linearGradient>
</defs>
</svg>
