<svg width="68" height="68" viewBox="0 0 68 68" fill="none" xmlns="http://www.w3.org/2000/svg">
<path d="M8.95761 67.1846C24.743 51.8925 28.1961 30.6808 34.6089 28.2144" stroke="url(#paint0_linear)" stroke-linecap="round" stroke-linejoin="round"/>
<path d="M61.286 2.6017C47.9563 4.58324 26.687 16.743 32.9986 29.9541C34.2088 32.4872 54.9046 25.7342 61.286 2.6017Z" fill="url(#paint1_linear)"/>
<path d="M17.0118 15.0656C25.3509 19.1158 30.6623 30.6809 27.2092 38.0803C26.0707 40.52 8.46405 25.7479 17.0118 15.0656Z" fill="url(#paint2_linear)"/>
<path d="M5.27119 30.7613C13.6103 34.8114 21.7831 47.9461 18.33 55.3455C17.1914 57.7852 1.55795 47.9461 5.27119 30.7613Z" fill="url(#paint3_linear)"/>
<path d="M45.9543 56.4146C39.5415 63.2382 22.8159 62.1219 18.1343 55.4317C16.5908 53.2258 37.0751 46.9595 45.9543 56.4146Z" fill="url(#paint4_linear)"/>
<path d="M53.8472 35.1205C47.4343 41.9441 36.5819 42.0266 27.7026 38.0802C25.2423 36.9868 44.4746 28.2144 53.8472 35.1205Z" fill="url(#paint5_linear)"/>
<defs>
<linearGradient id="paint0_linear" x1="36.0888" y1="25.7479" x2="9.4509" y2="65.7047" gradientUnits="userSpaceOnUse">
<stop stop-color="#51B26C"/>
<stop offset="1" stop-color="#449750"/>
</linearGradient>
<linearGradient id="paint1_linear" x1="52.5666" y1="-3.38474" x2="40.8831" y2="30.394" gradientUnits="userSpaceOnUse">
<stop offset="0.265625" stop-color="#5FCF97"/>
<stop offset="0.682292" stop-color="#48A057"/>
<stop offset="1" stop-color="#52B36E"/>
</linearGradient>
<linearGradient id="paint2_linear" x1="15.3394" y1="16.0311" x2="27.8938" y2="37.776" gradientUnits="userSpaceOnUse">
<stop stop-color="#5DCA8C"/>
<stop offset="1" stop-color="#4EAB74"/>
</linearGradient>
<linearGradient id="paint3_linear" x1="4.3537" y1="31.291" x2="18.3146" y2="55.4719" gradientUnits="userSpaceOnUse">
<stop stop-color="#63D7A1"/>
<stop offset="1" stop-color="#469A4F"/>
</linearGradient>
<linearGradient id="paint4_linear" x1="45.9543" y1="56.1849" x2="18.0517" y2="56.1849" gradientUnits="userSpaceOnUse">
<stop stop-color="#65DCA8"/>
<stop offset="1" stop-color="#449750"/>
</linearGradient>
<linearGradient id="paint5_linear" x1="53.8472" y1="36.6073" x2="27.4872" y2="36.6073" gradientUnits="userSpaceOnUse">
<stop stop-color="#5AC489"/>
<stop offset="0.307292" stop-color="#62D69E"/>
<stop offset="1" stop-color="#4DAA64"/>
</linearGradient>
</defs>
</svg>
