<svg width="39" height="39" viewBox="0 0 39 39" fill="none" xmlns="http://www.w3.org/2000/svg">
<path d="M30.875 4.875H24.0825C23.4 2.99 21.6125 1.625 19.5 1.625C17.3875 1.625 15.6 2.99 14.9175 4.875H8.125C6.3375 4.875 4.875 6.3375 4.875 8.125V30.875C4.875 32.6625 6.3375 34.125 8.125 34.125H30.875C32.6625 34.125 34.125 32.6625 34.125 30.875V8.125C34.125 6.3375 32.6625 4.875 30.875 4.875ZM19.5 4.875C20.3938 4.875 21.125 5.60625 21.125 6.5C21.125 7.39375 20.3938 8.125 19.5 8.125C18.6062 8.125 17.875 7.39375 17.875 6.5C17.875 5.60625 18.6062 4.875 19.5 4.875ZM22.75 27.625H11.375V24.375H22.75V27.625ZM27.625 21.125H11.375V17.875H27.625V21.125ZM27.625 14.625H11.375V11.375H27.625V14.625Z" fill="black"/>
</svg>
