<svg width="49" height="64" viewBox="0 0 49 64" fill="none" xmlns="http://www.w3.org/2000/svg">
<path d="M24.3212 62.7126C27.6298 35.0598 22.43 28.158 4.4176 1.03931" stroke="url(#paint0_linear)" stroke-linecap="round" stroke-linejoin="round"/>
<line x1="7.411" y1="1.22802" x2="7.1751" y2="4.96974" stroke="#80C7AE"/>
<path d="M3.73828 3.83926L7.84481 6.26418" stroke="url(#paint1_linear)"/>
<line x1="10.8224" y1="6.55016" x2="10.0022" y2="9.62894" stroke="url(#paint2_linear)"/>
<line x1="5.98399" y1="8.16955" x2="10.2707" y2="9.692" stroke="url(#paint3_linear)"/>
<line x1="8.62788" y1="14.581" x2="14.2011" y2="15.5585" stroke="#80C7AE"/>
<line x1="15.5241" y1="11.2686" x2="14.0017" y2="15.5553" stroke="url(#paint4_linear)"/>
<line x1="9.62052" y1="19.029" x2="17.6489" y2="20.7874" stroke="#80C7AE"/>
<line x1="19.0391" y1="15.2178" x2="17.4381" y2="20.7518" stroke="url(#paint5_linear)"/>
<path d="M12.4277 24.4108L20.5985 27.4164" stroke="#6FB3A0"/>
<line x1="22.9633" y1="21.8416" x2="20.1543" y2="26.6733" stroke="url(#paint6_linear)"/>
<line x1="28.5498" y1="32.2451" x2="24.4149" y2="38.2454" stroke="url(#paint7_linear)"/>
<line x1="17.5358" y1="34.5935" x2="24.199" y2="38.144" stroke="url(#paint8_linear)"/>
<line x1="15.3811" y1="28.8164" x2="22.668" y2="32.4063" stroke="url(#paint9_linear)"/>
<line x1="26.3791" y1="27.085" x2="22.9071" y2="32.501" stroke="url(#paint10_linear)"/>
<line x1="19.7444" y1="40.4068" x2="25.1211" y2="44.5024" stroke="url(#paint11_linear)"/>
<line x1="30.5521" y1="39.3335" x2="25.2093" y2="44.6315" stroke="#519289"/>
<line x1="21.3463" y1="45.5531" x2="25.4758" y2="49.57" stroke="#519289"/>
<line x1="30.822" y1="44.9854" x2="25.4792" y2="50.2835" stroke="url(#paint12_linear)"/>
<line x1="22.188" y1="51.8563" x2="25.1488" y2="54.5473" stroke="url(#paint13_linear)"/>
<line x1="28.59" y1="52.7714" x2="25.3275" y2="55.8793" stroke="url(#paint14_linear)"/>
<path d="M28.4688 61.0603C28.6012 41.6971 32.7906 37.3904 47.5831 20.2574" stroke="url(#paint15_linear)" stroke-linecap="round" stroke-linejoin="round"/>
<line y1="-0.5" x2="2.60672" y2="-0.5" transform="matrix(-0.0629191 0.998019 0.998019 0.0629191 45.8488 20.1481)" stroke="#80C7AE"/>
<path d="M47.8073 22.2481L44.7629 23.5622" stroke="url(#paint16_linear)"/>
<line y1="-0.5" x2="2.21529" y2="-0.5" transform="matrix(0.13403 0.990977 0.990977 -0.13403 43.0286 23.4528)" stroke="url(#paint17_linear)"/>
<line y1="-0.5" x2="3.16287" y2="-0.5" transform="matrix(-0.976904 0.213679 0.213679 0.976904 45.9543 25.3785)" stroke="url(#paint18_linear)"/>
<line y1="-0.5" x2="3.93414" y2="-0.5" transform="matrix(-0.998863 0.0476785 0.0476785 0.998863 43.5131 29.5778)" stroke="#80C7AE"/>
<line y1="-0.5" x2="3.16287" y2="-0.5" transform="matrix(0.213679 0.976904 0.976904 -0.213679 39.3684 26.2693)" stroke="url(#paint19_linear)"/>
<line y1="-0.5" x2="5.71434" y2="-0.5" transform="matrix(-0.995981 0.0895684 0.0895684 0.995981 42.4545 32.5583)" stroke="#80C7AE"/>
<line y1="-0.5" x2="4.00546" y2="-0.5" transform="matrix(0.15508 0.987902 0.987902 -0.15508 36.6029 28.7068)" stroke="url(#paint20_linear)"/>
<path d="M40.0172 35.6791L34.1187 37.0388" stroke="#6FB3A0"/>
<line y1="-0.5" x2="3.88587" y2="-0.5" transform="matrix(0.390051 0.920793 0.920793 -0.390051 33.2943 32.8514)" stroke="url(#paint21_linear)"/>
<line y1="-0.5" x2="5.06655" y2="-0.5" transform="matrix(0.459524 0.888166 0.888166 -0.459524 28.5211 39.5155)" stroke="url(#paint22_linear)"/>
<line y1="-0.5" x2="5.24952" y2="-0.5" transform="matrix(-0.934599 0.355704 0.355704 0.934599 35.7281 42.5818)" stroke="url(#paint23_linear)"/>
<line y1="-0.5" x2="5.64789" y2="-0.5" transform="matrix(-0.945448 0.325774 0.325774 0.945448 37.7085 38.7888)" stroke="url(#paint24_linear)"/>
<line y1="-0.5" x2="4.47297" y2="-0.5" transform="matrix(0.42968 0.902981 0.902981 -0.42968 30.4741 36.1561)" stroke="url(#paint25_linear)"/>
<line y1="-0.5" x2="4.69933" y2="-0.5" transform="matrix(-0.865303 0.501249 0.501249 0.865303 33.7477 46.3748)" stroke="url(#paint26_linear)"/>
<line y1="-0.5" x2="5.23151" y2="-0.5" transform="matrix(0.616021 0.78773 0.78773 -0.616021 26.4861 44.1757)" stroke="#519289"/>
<line y1="-0.5" x2="4.00546" y2="-0.5" transform="matrix(-0.798699 0.60173 0.60173 0.798699 32.2283 49.7615)" stroke="#519289"/>
<line y1="-0.5" x2="5.23151" y2="-0.5" transform="matrix(0.616021 0.78773 0.78773 -0.616021 25.8064 48.0507)" stroke="url(#paint27_linear)"/>
<line y1="-0.5" x2="2.78186" y2="-0.5" transform="matrix(-0.818627 0.574326 0.574326 0.818627 31.0878 54.0428)" stroke="url(#paint28_linear)"/>
<line y1="-0.5" x2="3.13289" y2="-0.5" transform="matrix(0.63168 0.775229 0.775229 -0.63168 26.6617 53.6107)" stroke="url(#paint29_linear)"/>
<defs>
<linearGradient id="paint0_linear" x1="4.4176" y1="1.03931" x2="24.7733" y2="55.541" gradientUnits="userSpaceOnUse">
<stop offset="0.239583" stop-color="#80C7AE"/>
<stop offset="1" stop-color="#519289"/>
</linearGradient>
<linearGradient id="paint1_linear" x1="3.92889" y1="3.82596" x2="7.86447" y2="5.95237" gradientUnits="userSpaceOnUse">
<stop stop-color="#519289"/>
<stop offset="1" stop-color="#80C7AE"/>
</linearGradient>
<linearGradient id="paint2_linear" x1="9.50315" y1="9.17895" x2="10.4915" y2="6.36979" gradientUnits="userSpaceOnUse">
<stop stop-color="#80C7AE"/>
<stop offset="1" stop-color="#519289"/>
</linearGradient>
<linearGradient id="paint3_linear" x1="7.96" y1="9.40194" x2="7.62533" y2="10.3443" gradientUnits="userSpaceOnUse">
<stop stop-color="#80C7AE"/>
<stop offset="1" stop-color="#80C7AE"/>
</linearGradient>
<linearGradient id="paint4_linear" x1="14.2918" y1="13.2446" x2="13.3494" y2="12.91" gradientUnits="userSpaceOnUse">
<stop stop-color="#80C7AE"/>
<stop offset="1" stop-color="#80C7AE"/>
</linearGradient>
<linearGradient id="paint5_linear" x1="17.7583" y1="17.8459" x2="16.7977" y2="17.5679" gradientUnits="userSpaceOnUse">
<stop stop-color="#80C7AE"/>
<stop offset="1" stop-color="#80C7AE"/>
</linearGradient>
<linearGradient id="paint6_linear" x1="23.0407" y1="22.0483" x2="20.2955" y2="26.5964" gradientUnits="userSpaceOnUse">
<stop stop-color="#519289"/>
<stop offset="1" stop-color="#6FB4A1"/>
</linearGradient>
<linearGradient id="paint7_linear" x1="26.0706" y1="34.9615" x2="25.2472" y2="34.3941" gradientUnits="userSpaceOnUse">
<stop stop-color="#519289"/>
<stop offset="1" stop-color="#80C7AE"/>
</linearGradient>
<linearGradient id="paint8_linear" x1="20.6323" y1="36.81" x2="20.162" y2="37.6925" gradientUnits="userSpaceOnUse">
<stop stop-color="#519289"/>
<stop offset="1" stop-color="#80C7AE"/>
</linearGradient>
<linearGradient id="paint9_linear" x1="18.8036" y1="31.0598" x2="18.3617" y2="31.9569" gradientUnits="userSpaceOnUse">
<stop stop-color="#519289"/>
<stop offset="1" stop-color="#80C7AE"/>
</linearGradient>
<linearGradient id="paint10_linear" x1="24.2222" y1="29.5232" x2="23.3803" y2="28.9835" gradientUnits="userSpaceOnUse">
<stop offset="0.0572917" stop-color="#519289"/>
<stop offset="0.28125" stop-color="#80C7AE"/>
</linearGradient>
<linearGradient id="paint11_linear" x1="22.1297" y1="42.8523" x2="21.5238" y2="43.6478" gradientUnits="userSpaceOnUse">
<stop stop-color="#519289"/>
<stop offset="1" stop-color="#80C7AE"/>
</linearGradient>
<linearGradient id="paint12_linear" x1="27.7986" y1="47.2794" x2="27.0944" y2="46.5693" gradientUnits="userSpaceOnUse">
<stop stop-color="#519289"/>
<stop offset="1" stop-color="#80C7AE"/>
</linearGradient>
<linearGradient id="paint13_linear" x1="23.3321" y1="53.5718" x2="22.6595" y2="54.3118" gradientUnits="userSpaceOnUse">
<stop stop-color="#519289"/>
<stop offset="1" stop-color="#80C7AE"/>
</linearGradient>
<linearGradient id="paint14_linear" x1="26.6139" y1="53.9633" x2="25.9241" y2="53.2393" gradientUnits="userSpaceOnUse">
<stop stop-color="#519289"/>
<stop offset="1" stop-color="#80C7AE"/>
</linearGradient>
<linearGradient id="paint15_linear" x1="47.5831" y1="20.2574" x2="28.7831" y2="56.074" gradientUnits="userSpaceOnUse">
<stop offset="0.239583" stop-color="#80C7AE"/>
<stop offset="1" stop-color="#519289"/>
</linearGradient>
<linearGradient id="paint16_linear" x1="47.6769" y1="22.2223" x2="44.7766" y2="23.3454" gradientUnits="userSpaceOnUse">
<stop stop-color="#519289"/>
<stop offset="1" stop-color="#80C7AE"/>
</linearGradient>
<linearGradient id="paint17_linear" x1="2.00228" y1="0.0980584" x2="-0.0684458" y2="-0.0143956" gradientUnits="userSpaceOnUse">
<stop stop-color="#80C7AE"/>
<stop offset="1" stop-color="#519289"/>
</linearGradient>
<linearGradient id="paint18_linear" x1="1.58143" y1="0" x2="1.58143" y2="1" gradientUnits="userSpaceOnUse">
<stop stop-color="#80C7AE"/>
<stop offset="1" stop-color="#80C7AE"/>
</linearGradient>
<linearGradient id="paint19_linear" x1="1.58143" y1="0" x2="1.58143" y2="1" gradientUnits="userSpaceOnUse">
<stop stop-color="#80C7AE"/>
<stop offset="1" stop-color="#80C7AE"/>
</linearGradient>
<linearGradient id="paint20_linear" x1="2.00273" y1="0" x2="2.00273" y2="1" gradientUnits="userSpaceOnUse">
<stop stop-color="#80C7AE"/>
<stop offset="1" stop-color="#80C7AE"/>
</linearGradient>
<linearGradient id="paint21_linear" x1="0.0971467" y1="-0.67082" x2="3.79079" y2="-0.62859" gradientUnits="userSpaceOnUse">
<stop stop-color="#519289"/>
<stop offset="1" stop-color="#6FB4A1"/>
</linearGradient>
<linearGradient id="paint22_linear" x1="2.53328" y1="0" x2="2.53328" y2="1" gradientUnits="userSpaceOnUse">
<stop stop-color="#519289"/>
<stop offset="1" stop-color="#80C7AE"/>
</linearGradient>
<linearGradient id="paint23_linear" x1="2.62476" y1="0" x2="2.62476" y2="1" gradientUnits="userSpaceOnUse">
<stop stop-color="#519289"/>
<stop offset="1" stop-color="#80C7AE"/>
</linearGradient>
<linearGradient id="paint24_linear" x1="2.82395" y1="0" x2="2.82395" y2="1" gradientUnits="userSpaceOnUse">
<stop stop-color="#519289"/>
<stop offset="1" stop-color="#80C7AE"/>
</linearGradient>
<linearGradient id="paint25_linear" x1="2.23648" y1="0" x2="2.23648" y2="1" gradientUnits="userSpaceOnUse">
<stop offset="0.0572917" stop-color="#519289"/>
<stop offset="0.28125" stop-color="#80C7AE"/>
</linearGradient>
<linearGradient id="paint26_linear" x1="2.34966" y1="0" x2="2.34966" y2="1" gradientUnits="userSpaceOnUse">
<stop stop-color="#519289"/>
<stop offset="1" stop-color="#80C7AE"/>
</linearGradient>
<linearGradient id="paint27_linear" x1="2.61575" y1="0" x2="2.61575" y2="1" gradientUnits="userSpaceOnUse">
<stop stop-color="#519289"/>
<stop offset="1" stop-color="#80C7AE"/>
</linearGradient>
<linearGradient id="paint28_linear" x1="1.39093" y1="0" x2="1.39093" y2="1" gradientUnits="userSpaceOnUse">
<stop stop-color="#519289"/>
<stop offset="1" stop-color="#80C7AE"/>
</linearGradient>
<linearGradient id="paint29_linear" x1="1.56644" y1="0" x2="1.56644" y2="1" gradientUnits="userSpaceOnUse">
<stop stop-color="#519289"/>
<stop offset="1" stop-color="#80C7AE"/>
</linearGradient>
</defs>
</svg>
